<svg width="156" height="151" viewBox="0 0 156 151" fill="none" xmlns="http://www.w3.org/2000/svg">
<g opacity="0.7">
<mask id="mask0" mask-type="alpha" maskUnits="userSpaceOnUse" x="0" y="0" width="157" height="151">
<rect width="156" height="150.429" transform="matrix(-1 0 0 1 156 0)" fill="#C4C4C4"/>
</mask>
<g mask="url(#mask0)">
<path d="M3.28282 61.2001L4.64514 56.14L8.30238 57.1153C11.1999 57.888 13.8754 59.3656 16.1323 61.3283C15.0279 58.4044 14.8369 55.1674 15.6774 52.0455C16.7273 48.1456 19.2218 44.883 22.7067 42.856L29.0792 39.1494L32.7358 45.5305C34.7355 49.0202 35.2567 53.087 34.2068 56.9869C33.9778 57.8373 33.6566 58.6431 33.2922 59.4248C34.7408 59.4016 36.1905 59.5585 37.608 59.9365L42.9584 61.3633L41.5961 66.4235C41.0824 68.3315 40.2564 70.1363 39.1896 71.7845L39.4841 71.7232L38.8761 80.8049C38.7262 83.0397 38.2532 85.2207 37.5069 87.3014L38.6348 86.6434L42.033 92.5736C43.8909 95.8157 44.5623 99.518 44.0002 103.173L47.0796 101.38L50.2971 106.995C52.5451 110.918 53.1587 115.684 51.9776 120.071C51.2852 122.643 49.9875 125.056 48.223 127.055L44.8131 130.915C49.1643 134.614 53.8732 137.843 58.8732 140.562C64.5693 140.695 70.2669 140.242 75.8962 139.204L74.8822 134.164C74.3584 131.555 74.4475 128.817 75.1394 126.247C76.3204 121.86 79.2459 118.039 83.1636 115.76L88.7708 112.499L90.5374 115.581C91.8871 112.136 94.3285 109.264 97.5663 107.381L103.488 103.938L104.135 105.067C104.531 102.893 105.219 100.772 106.213 98.7596L110.249 90.592L110.473 90.7917C110.376 88.8358 110.568 86.8618 111.081 84.9537L112.444 79.8936L117.794 81.3204C119.212 81.6984 120.548 82.2846 121.789 83.0249C121.866 82.1666 121.993 81.3066 122.221 80.4586C123.271 76.5586 125.766 73.2961 129.251 71.269L135.623 67.5625L139.28 73.9436C141.28 77.4333 141.801 81.5 140.751 85.4C139.91 88.5218 138.119 91.2301 135.693 93.2127C138.634 92.636 141.693 92.6878 144.591 93.4605L148.248 94.4358L146.886 99.496C145.594 104.295 142.392 108.48 138.103 110.975C137.8 111.151 137.482 111.298 137.169 111.457L138.598 111.838L136.792 118.545C135.767 122.355 133.327 125.542 129.925 127.521C127.926 128.683 125.733 129.332 123.497 129.477L129.159 132.623L125.963 136.243C124.223 138.213 122.188 139.88 119.921 141.201C115.748 143.629 111.006 144.754 106.203 144.457L105.585 144.419C105.65 144.592 105.733 144.754 105.79 144.929L107.187 149.101L102.396 150.74C98.2221 152.164 93.7735 152.321 89.5256 151.188C85.2777 150.055 81.504 147.706 78.6074 144.394L78.0004 143.698C74.9071 144.316 71.7995 144.803 68.6702 145.085C71.4161 146.144 74.2064 147.103 77.0692 147.866L86.0513 150.262L84.7969 154.921L75.8148 152.526C69.4499 150.829 63.3496 148.398 57.5817 145.359C51.0599 145.12 44.5556 144.19 38.1908 142.492L29.2087 140.097L30.4631 135.438L39.4452 137.833C42.308 138.596 45.2062 139.155 48.1158 139.606C45.5496 137.805 43.1007 135.836 40.7348 133.762L39.8594 134.063C35.6854 135.487 31.2367 135.644 26.9889 134.511C22.741 133.378 18.9672 131.029 16.0706 127.717L12.7453 123.913L16.0508 120.994C16.1905 120.872 16.3438 120.773 16.4846 120.656L15.9306 120.381C11.6218 118.248 8.08073 114.914 5.68579 110.734C4.38361 108.462 3.46097 106.006 2.94453 103.434L1.9926 98.7078L8.47643 98.8014C6.6129 97.5628 5.04201 95.9104 3.89288 93.9085C1.93983 90.5036 1.42847 86.5294 2.45396 82.7203L4.25974 76.0131L5.68883 76.3942C5.49719 76.1009 5.29611 75.815 5.12215 75.5114C2.66135 71.2171 1.99075 65.9993 3.28282 61.2001ZM102.725 112.287L101.714 110.527L99.9538 111.551C97.293 113.098 95.3856 115.591 94.5834 118.571C94.0402 120.588 94.0501 122.718 94.6188 124.728L96.2929 130.662L100.723 126.361C102.226 124.899 103.304 123.061 103.848 121.041C104.65 118.062 104.251 114.954 102.725 112.287ZM110.508 100.886C108.873 104.193 108.235 107.874 108.66 111.53C109.02 114.63 110.153 117.529 111.904 120.061C112.842 119.043 113.729 117.988 114.591 116.915C114.881 116.51 115.206 116.135 115.53 115.759C115.549 115.737 115.563 115.711 115.579 115.688L115.243 115.598L115.952 112.965C116.262 111.815 116.434 110.624 116.457 109.422C116.536 105.218 114.821 101.207 111.742 98.3865L110.508 100.886ZM107.883 124.017C108.076 123.842 108.283 123.675 108.475 123.496C108.38 123.369 108.284 123.246 108.192 123.119C108.093 123.422 107.999 123.724 107.883 124.017ZM121.942 89.3432C120.512 87.7033 118.643 86.5407 116.54 85.9799L115.822 85.7884L115.714 86.1891C114.752 89.7629 115.25 93.6463 117.083 96.8442C118.39 99.1255 120.344 100.977 122.643 102.202C123.079 101.507 123.54 100.834 124.053 100.201C124.306 99.522 124.538 98.8325 124.767 98.1418L124.642 95.9662C124.503 93.5244 123.545 91.1715 121.942 89.3432ZM121.102 106.83C121.103 106.843 121.108 106.854 121.108 106.864C121.112 106.856 121.117 106.847 121.12 106.838C121.113 106.836 121.109 106.832 121.102 106.83ZM135.118 76.3644L133.85 74.1509L131.639 75.4366C129.302 76.796 127.558 79.0777 126.854 81.6939C125.957 85.0254 126.769 88.5555 129.026 91.1374L129.217 91.3559L129.493 91.2622C132.745 90.1468 135.222 87.4938 136.118 84.1646C136.823 81.5483 136.459 78.7046 135.118 76.3644ZM135.715 106.807C138.908 104.949 141.291 101.834 142.253 98.2606L142.352 97.8949C139.519 97.3441 136.535 97.6295 133.846 98.7179C131.648 99.6074 129.723 101.039 128.169 102.812C127.432 104.708 126.611 106.559 125.707 108.368C129.091 109.106 132.701 108.56 135.715 106.807ZM127.536 123.353C129.795 122.038 131.479 119.838 132.16 117.31L132.711 115.262L131.653 114.98C128.473 114.132 125.15 114.579 122.292 116.242C121.191 116.882 120.216 117.701 119.363 118.637C119.055 119.042 118.719 119.426 118.402 119.826C118.141 120.196 117.884 120.57 117.665 120.968L116.329 123.378L120.03 124.365C122.543 125.036 125.279 124.667 127.536 123.353ZM106.521 139.643C110.376 139.884 114.181 138.981 117.531 137.033C119.008 136.173 120.361 135.133 121.563 133.923L119.667 132.868C117.326 131.57 114.679 130.864 111.998 130.823C109.758 130.79 107.539 131.224 105.478 132.083C103.252 133.692 100.96 135.191 98.565 136.497C100.01 137.244 101.305 138.224 102.419 139.388L106.521 139.643ZM100.867 146.175L101.1 146.095C99.958 143.089 97.4585 140.819 94.3409 139.988C93.5604 139.779 92.7522 139.674 91.944 139.66C90.079 140.419 88.1794 141.104 86.2368 141.689C85.3205 141.967 84.3904 142.176 83.4678 142.421C88.0679 146.672 94.882 148.222 100.867 146.175ZM79.5866 133.186L80.5957 138.207C81.2682 138.042 81.9365 137.856 82.6059 137.675L85.8108 134.844C87.4494 133.395 88.6162 131.514 89.1851 129.401C89.9522 126.552 89.568 123.58 88.1094 121.032L86.997 119.087L85.5518 119.928C82.7291 121.569 80.6229 124.321 79.7717 127.483C79.2731 129.335 79.2109 131.308 79.5866 133.186ZM28.5738 47.9513L27.3054 45.7379L25.0949 47.0236C22.7579 48.383 21.0141 50.6646 20.3097 53.2809C19.4128 56.6124 20.2249 60.1425 22.4815 62.7243L22.6734 62.9428L22.9494 62.8491C26.2013 61.7337 28.6781 59.0807 29.5744 55.7516C30.2788 53.1353 29.9149 50.2916 28.5738 47.9513ZM37.0716 64.7874L36.3536 64.5959C34.2505 64.0351 32.0477 64.1119 29.9829 64.8197C27.6756 65.6077 25.667 67.167 24.3171 69.2116L23.1166 71.0339C22.9671 71.7456 22.8224 72.4586 22.6997 73.1725C22.8261 73.9753 22.8895 74.7912 22.9156 75.6072C25.522 75.6905 28.1447 75.059 30.4229 73.7339C33.6188 71.877 36.0016 68.7619 36.9637 65.1881L37.0716 64.7874ZM21.9057 80.3818C21.9055 80.3917 21.9053 80.4016 21.9021 80.4133C21.9099 80.4029 21.917 80.3948 21.9248 80.3844C21.9202 80.3831 21.9132 80.3813 21.9057 80.3818ZM34.0882 80.5069L34.2754 77.7277C30.1922 78.6389 26.6916 81.2586 24.6513 84.9368C24.0668 85.992 23.615 87.1076 23.3052 88.2584L22.5964 90.891L22.2606 90.8014C22.2653 90.8302 22.2647 90.86 22.2671 90.8881C22.3595 91.3746 22.4519 91.8612 22.4999 92.356C22.7046 93.7165 22.9455 95.0716 23.2459 96.4177C26.0345 95.0964 28.4725 93.1497 30.3418 90.6418C32.5468 87.6891 33.8429 84.1844 34.0882 80.5069ZM24.4897 101.102C24.5663 101.352 24.6594 101.596 24.7406 101.848C24.7874 101.536 24.8603 101.228 24.9246 100.916C24.7807 100.98 24.6335 101.038 24.4897 101.102ZM37.871 94.9944L36.861 93.2318L35.1009 94.2556C32.4401 95.8033 30.5327 98.2961 29.7305 101.276C29.1873 103.293 29.1972 105.423 29.7659 107.433L31.44 113.368L35.8701 109.066C37.3733 107.604 38.4514 105.766 38.9952 103.746C39.7974 100.767 39.3979 97.6588 37.871 94.9944ZM41.2439 127.713L44.6401 123.867C45.9113 122.428 46.8466 120.687 47.3453 118.835C48.1964 115.674 47.7548 112.243 46.1351 109.416L45.3058 107.969L43.3661 109.097C40.8224 110.579 38.9963 112.963 38.2292 115.812C37.6603 117.925 37.7257 120.135 38.4172 122.205L39.7705 126.251C40.2593 126.741 40.7444 127.235 41.2439 127.713ZM19.6853 124.526C23.8426 129.277 30.5225 131.326 36.6417 129.934C35.9662 129.262 35.2656 128.618 34.6115 127.922C33.2234 126.448 31.9228 124.908 30.6881 123.325C29.9792 122.933 29.2263 122.623 28.4457 122.415C25.3258 121.583 22.021 122.304 19.5212 124.342L19.6853 124.526ZM9.84712 108.316C11.7691 111.67 14.6112 114.346 18.0679 116.056L21.7483 117.877C23.2978 117.424 24.9116 117.22 26.5382 117.292C25.1206 114.968 23.8903 112.53 22.7689 110.029C21.4156 108.26 19.7116 106.779 17.7549 105.693C15.4135 104.394 12.7662 103.688 10.0861 103.648L7.91447 103.618C8.35117 105.26 8.99927 106.836 9.84712 108.316ZM7.08633 83.9557C6.40579 86.4834 6.75943 89.227 8.05423 91.49C9.35197 93.7513 11.5335 95.4317 14.0465 96.1019L17.7478 97.0889L17.8035 94.3371C17.8117 93.8824 17.7791 93.4317 17.7389 92.9815C17.6637 92.4771 17.5669 91.9793 17.5045 91.4733C17.2357 90.2405 16.8031 89.0439 16.1715 87.9416C14.5292 85.0791 11.8763 83.0382 8.69615 82.1901L7.63765 81.9078L7.08633 83.9557ZM9.2841 73.0906C11.0136 76.1087 13.8658 78.3775 17.1667 79.4226C17.2919 77.4085 17.5114 75.3945 17.8262 73.386C17.3727 71.0777 16.423 68.8793 14.9639 67.0145C13.1852 64.7323 10.7439 63.0026 8.01366 62.0697L7.91518 62.4355C6.95302 66.0093 7.4516 69.8927 9.2841 73.0906Z" fill="#D6A354"/>
<path d="M107.52 33.635L112.153 34.8703L110.898 39.5298L106.266 38.2944L107.52 33.635Z" fill="#D6A354"/>
<path d="M119.536 44.3302L124.168 45.5655L122.914 50.225L118.281 48.9896L119.536 44.3302Z" fill="#D6A354"/>
<path d="M117.974 66.3866L112.105 60.6539C104.442 53.1668 94.9283 47.7558 84.6005 45.0016C74.2727 42.2474 63.3156 42.1994 52.9198 44.8705L44.9545 46.9138L40.2365 45.6556L40.9698 10.3915L58.1419 17.7376L69.6416 4.65883L78.9157 17.4221L95.7023 3.76562L103.379 23.9483L117.822 17.51L121.211 34.5592L139.773 36.7426L122.692 67.6448L117.974 66.3866ZM117.186 38.9418L114.285 24.3499L100.69 30.4103L93.5697 11.6867L77.9995 24.3566L69.2709 12.3431L59.428 23.5365L45.6226 17.6276L45.1198 41.9015L51.7556 40.1953C62.9444 37.3262 74.7373 37.3773 85.8549 40.3422C96.9726 43.307 107.211 49.1312 115.461 57.1891L120.35 61.9688L132.11 40.6968L117.186 38.9418Z" fill="#D6A354"/>
<path d="M65.8291 22.5168L70.4615 23.7521L69.207 28.4116L64.5747 27.1762L65.8291 22.5168Z" fill="#D6A354"/>
<path d="M50.0504 25.7999L54.6827 27.0353L53.4283 31.6947L48.796 30.4594L50.0504 25.7999Z" fill="#D6A354"/>
<path d="M87.1094 35.6828C83.2785 34.6612 81.0051 30.694 82.0425 26.8406C83.08 22.9873 87.0418 20.6829 90.8727 21.7045C94.7037 22.7262 96.977 26.6933 95.9396 30.5467C94.9022 34.4 90.9404 36.7045 87.1094 35.6828ZM89.6183 26.364C88.3398 26.023 87.0211 26.79 86.6749 28.076C86.3287 29.362 87.0853 30.6824 88.3638 31.0234C89.6424 31.3643 90.961 30.5973 91.3072 29.3113C91.6535 28.0253 90.8968 26.7049 89.6183 26.364Z" fill="#D6A354"/>
</g>
</g>
</svg>
