<svg width="136" height="197" viewBox="0 0 136 197" fill="none" xmlns="http://www.w3.org/2000/svg">
<path d="M136 92.3184C136 89.131 133.4 86.5469 130.194 86.5469C126.986 86.5469 124.387 89.131 124.387 92.3184C124.387 123.223 99.0917 148.366 68 148.366C36.9083 148.366 11.6129 123.223 11.6129 92.3184C11.6129 89.131 9.01281 86.5469 5.80647 86.5469C2.59937 86.5469 0 89.131 0 92.3184C0 127.643 27.4062 156.722 62.1935 159.66V185.457C58.9864 185.457 56.3871 188.041 56.3871 191.229C56.3871 194.416 58.9864 197 62.1935 197H73.8065C77.0128 197 79.613 194.416 79.613 191.229C79.613 188.041 77.0128 185.457 73.8065 185.457V159.66C108.594 156.721 136 127.643 136 92.3184Z" fill="#D29C4E"/>
<path d="M68 0C51.0811 0 37.3163 13.6819 37.3163 30.4988V92.3184C37.3163 109.135 51.0811 122.817 68 122.817C84.9197 122.817 98.6845 109.135 98.6845 92.318V30.4988C98.6845 13.6819 84.9197 0 68 0Z" fill="#D29C4E"/>
</svg>
