<svg xmlns="http://www.w3.org/2000/svg" viewBox="0 0 373.1 565.6"><path d="M141.6 554.5c10.4-2.8 19-9.5 24.2-18.9 5.3-9.5 6.5-20.5 3.3-31-15.2-50.1-25.2-103.3-29.9-158-.4-4.6-4.5-8.1-9.1-7.7-4.6.4-8.1 4.5-7.7 9.1 4.7 55.9 15 110.3 30.5 161.5 1.8 6.1 1.2 12.4-1.9 17.9-3 5.4-7.9 9.2-13.8 10.8-11.2 3-22.7-2.9-26.9-13.6-11.6-30.2-31.6-93.4-35.1-177.8-3.5-84.5 10-169.5 40.1-253.3.1-.3.3-.5.4-.8 4.9-13.6 10.4-27.6 16.3-41.4.1-.3.3-.6.3-1 .9-2.1 1.8-4.2 2.7-6.4 1-2.4 3-3.3 4.1-3.7 1.9-.6 4-.4 5.7.6 2.7 1.6 4 4.8 3.2 7.7-10.3 37.3-33.5 137.7-27.9 265.2.2 4.7 4.1 8.3 8.8 8.1 4.7-.2 8.3-4.1 8.1-8.8-2.5-56 .7-106.7 5.9-148.9L164 199c-15.8 15-18.2 42.3-4.5 64.9L266.8 441c14.5 24 43 33.5 63.4 21.1l32.9-19.9c4-2.4 5.3-7.6 2.8-11.6l-24.5-40.4c-2.4-4-7.6-5.3-11.6-2.8-4 2.4-5.3 7.6-2.8 11.6l20.1 33.2-25.6 15.5c-12.4 7.5-30.5.6-40.2-15.5L174 255.3c-10.6-17.6-8.2-38.6 5.5-46.9 4-2.4 5.3-7.6 2.8-11.6l-35.7-59c1.5-9.6 3.1-19.2 4.8-28.5l158 260.7c2.4 4 7.6 5.3 11.6 2.8 4-2.4 5.3-7.6 2.8-11.6L156.4 84.9c2.9-13.2 5.7-24 7.8-31.8 2.8-10.3-1.6-21.3-10.9-26.8-5.9-3.5-13-4.2-19.5-2.1-1.8.6-3.4 1.3-5 2.3-2 1.2-3.7 2.7-5.3 4.4l-5.1-8.4c-7.3-12.5-23.5-16.5-36-9S66 37.3 73.6 49.7l24.8 41C24 301 69.8 466.2 94.6 530.7c7.2 18.8 27.4 29.1 47 23.8zM88 41c-2.7-4.5-1.3-10.3 3.2-13 4.5-2.7 10.3-1.3 13 3.2l10.5 17.4c-3.1 7.3-6 14.6-8.8 21.9L88 41z" fill="#d6a354"/></svg>