<svg xmlns="http://www.w3.org/2000/svg" viewBox="0 0 1506.2 1429.5"><path d="M548.1 1255.6l215.4-105.2L795 1215c5.8 11.9 20.2 16.9 32.1 11.1l86.2-42.1c11.9-5.8 16.8-20.1 11-32.1L624.8 538.6l45-21.9c38.9 53.6 112 73.3 173.6 43.3l336.1-164.1c61.5-30.1 90.9-99.8 72.5-163.5l86.6-42.3c25.3-12.4 37.1-41.3 28.7-67.4l91-44.4c11.9-5.8 16.8-20.1 11-32.1-5.8-11.9-20.2-16.8-32.1-11l-91 44.4c-15.3-22.6-45.4-31.2-70.7-18.8l-86.6 42.3c-38.9-53.7-112-73.4-173.6-43.3L969 82.4l21.1 43.1 46.3-22.6c45.1-22 99.8-3.2 121.8 41.9l42 86.2c22.1 45.1 3.3 99.8-41.8 121.8L822.3 516.9c-45.1 22.1-99.8 3.2-121.8-41.9l-42.1-86.1c-22-45.1-3.2-99.8 41.9-121.8L907 166.2 885.9 123 679.2 223.9c-61.5 30.1-91 99.9-72.5 163.5l-45 22-40-81.9c-5.8-11.9-20.2-16.9-32.1-11.1L468.1 327l-21-43.1 21.5-10.5c11.9-5.8 16.9-20.2 11.1-32.1l-24.2-49.5c-17.4-35.6-60.5-50.5-96.2-33.1-35.6 17.4-50.5 60.5-33 96.2l24.2 49.5c5.8 11.9 20.1 16.8 32.1 11.1L404 305l21 43.1-21.6 10.5c-11.9 5.8-16.8 20.2-11 32.1l61 124.9-323.1 157.8c-11.9 5.8-16.8 20.1-11 32.1l202.3 414.3 43.1-21L172.9 706l43.1-21.1 310 634.8-43.1 21.1-71.6-146.8-43.1 21.1 82.2 168.3c5.8 11.9 20.2 16.9 32.1 11.1l86.2-42.1c11.9-5.8 16.8-20.2 11-32.1l-31.6-64.7zM380.3 201.8c11.9-5.8 26.3-.9 32.1 11l13.7 28-43.1 21.1-13.7-28c-5.8-11.9-.9-26.3 11-32.1zm490.4 949.6l-43.1 21-381.5-781.2 43.1-21.1 381.5 781.3zm450.6-1015.1c1.9 3.9.2 8.8-3.7 10.7l-84.7 41.4-21-43.1 84.7-41.4c3.8-1.9 8.7-.2 10.7 3.7l14 28.7zM646.9 474.5l-43.1 21.1-21.1-43.1 43.1-21.1 21.1 43.1zm-27.9 380L403.6 959.7 301.2 750.1l215.4-105.2 60.3 123.5L426.2 842c-11.9 5.8-16.9 20.2-11.1 32.1 5.8 11.9 20.2 16.8 32.1 11L598 811.4l21 43.1zM474.5 558.7l21 43.1-215.4 105.1-21.1-43.1 215.5-105.1zm52.5 653.8l-102.4-209.7L640 897.6l60.3 123.5-150.8 73.6c-11.9 5.8-16.8 20.2-11 32.1 5.8 11.9 20.2 16.9 32.1 11l150.8-73.6 21 43.1L527 1212.5z" fill="#d6a354"/></svg>